<svg xmlns="http://www.w3.org/2000/svg" width="18.195" height="18.195" viewBox="0 0 18.195 18.195"><defs><style>.a{fill:#124dff;}</style></defs><g transform="translate(-9 -9)"><path class="a" d="M18.1,27.2a9.1,9.1,0,1,1,9.1-9.1,9.1,9.1,0,0,1-9.1,9.1Zm0-16.864A7.766,7.766,0,1,0,25.864,18.1,7.766,7.766,0,0,0,18.1,10.331Z"/><path class="a" d="M37.99,38.656a.666.666,0,0,1-.47-.2l-7.766-7.766a.666.666,0,0,1,.941-.941l7.766,7.766a.666.666,0,0,1-.47,1.136Z" transform="translate(-16.009 -16.009)"/><path class="a" d="M30.168,38.656a.666.666,0,0,1-.47-1.136l7.766-7.766a.666.666,0,0,1,.941.941l-7.766,7.766A.666.666,0,0,1,30.168,38.656Z" transform="translate(-15.953 -16.009)"/></g></svg>