<svg xmlns="http://www.w3.org/2000/svg" width="19.172" height="19.172" viewBox="0 0 19.172 19.172"><defs><style>.a{fill:#1f1f1f;}</style></defs><g transform="translate(-6.414 -6.414)"><path class="a" d="M25.263,6.707l.03.03a1,1,0,0,1,0,1.414L17.444,16h0l7.848,7.848a1,1,0,0,1,0,1.414l-.03.03a1,1,0,0,1-1.414,0L16,17.444h0L8.152,25.293a1,1,0,0,1-1.414,0l-.03-.03a1,1,0,0,1,0-1.414L14.556,16h0L6.707,8.152a1,1,0,0,1,0-1.414l.03-.03a1,1,0,0,1,1.414,0L16,14.556h0l7.848-7.848A1,1,0,0,1,25.263,6.707Z"/></g></svg>