<svg xmlns="http://www.w3.org/2000/svg" width="18.123" height="18.123" viewBox="0 0 18.123 18.123"><defs><style>.a{fill:#2588f2;}</style></defs><g transform="translate(-2.5 -2.5)"><g transform="translate(2.5 2.5)"><path class="a" d="M11.562,2.5a9.062,9.062,0,1,0,9.062,9.062A9.07,9.07,0,0,0,11.562,2.5Zm0,17.036a7.974,7.974,0,1,1,7.974-7.974A8,8,0,0,1,11.562,19.536Z" transform="translate(-2.5 -2.5)"/><path class="a" d="M32.294,39.717l-1.831-1.831-.763.782L31.55,40.5v.019l.229.229.515.5h.019l.019.019,5.551-5.819L37.1,34.7Z" transform="translate(-24.511 -28.557)"/></g></g></svg>