<svg xmlns="http://www.w3.org/2000/svg" width="14.609" height="17.674" viewBox="0 0 14.609 17.674"><g transform="translate(-19.21 -11.4)"><path d="M35.506,40.061H27.744L27.293,27.62l-1.383.05.5,13.776H36.842l.5-13.776-1.383-.05Z" transform="translate(-5.111 -12.372)"/><path d="M38.255,42.379v-8.4a.693.693,0,0,0-1.385,0v8.4a.693.693,0,0,0,1.385,0Z" transform="translate(-13.47 -16.697)"/><path d="M48.465,42.379v-8.4a.693.693,0,0,0-1.385,0v8.4a.693.693,0,0,0,1.385,0Z" transform="translate(-21.258 -16.697)"/><path d="M58.675,42.379v-8.4a.693.693,0,0,0-1.385,0v8.4a.693.693,0,0,0,1.385,0Z" transform="translate(-29.046 -16.697)"/><path d="M29.582,13.44V13a1.6,1.6,0,0,0-1.6-1.6H25.048a1.6,1.6,0,0,0-1.6,1.6v.441H19.21v1.385H33.819V13.44ZM24.837,13a.214.214,0,0,1,.216-.214h2.928A.214.214,0,0,1,28.2,13v.444H24.833Z" transform="translate(0)"/></g></svg>