<svg xmlns="http://www.w3.org/2000/svg" width="17.125" height="17.091" viewBox="0 0 17.125 17.091"><defs><style>.a{fill:#fff;}</style></defs><g transform="translate(-41.199 -41.5)"><path class="a" d="M58.324,257.914v3.79a.863.863,0,0,1-.027.21h0a.814.814,0,0,1-.793.652H42.014a.811.811,0,0,1-.8-.722.639.639,0,0,1-.011-.146v-3.79a.809.809,0,0,1,1.617,0v3.035H56.712v-3.035a.808.808,0,0,1,1.38-.571A.854.854,0,0,1,58.324,257.914Z" transform="translate(0 -203.976)"/><path class="a" d="M118.1,50.143l-3.974,3.974c-.005.011-.016.016-.022.022a.936.936,0,0,1-.523.264c-.016,0-.032.005-.049.005a.586.586,0,0,1-.1.005h0l-.092-.005c-.016,0-.032-.005-.049-.005a.92.92,0,0,1-.523-.264l-.022-.022-3.974-3.974a.945.945,0,1,1,1.337-1.337l2.388,2.388V42.444a.948.948,0,0,1,.944-.944.965.965,0,0,1,.669.275.932.932,0,0,1,.275.669v8.751l2.388-2.388a.95.95,0,0,1,1.337,0A.966.966,0,0,1,118.1,50.143Z" transform="translate(-63.672)"/></g></svg>