<svg xmlns="http://www.w3.org/2000/svg" width="19.293" height="19.293" viewBox="0 0 19.293 19.293"><g transform="translate(-3748 -1153)"><path d="M45.739,19a3.551,3.551,0,0,0-2.527,1.046l-6.479,6.482A5.872,5.872,0,0,0,35,30.71v2.6h2.6a5.872,5.872,0,0,0,4.179-1.733L48.269,25.1a3.575,3.575,0,0,0-2.53-6.1Zm1.207,4.78-6.479,6.482A4.02,4.02,0,0,1,37.6,31.447h-.737V30.71a4.02,4.02,0,0,1,1.186-2.86l6.482-6.482a1.708,1.708,0,0,1,2.415,2.415Z" transform="translate(3717.979 1134)"/><path d="M22.423,41.048h11.2a3.423,3.423,0,0,0,3.423-3.423V32.646H35.181v4.979a1.556,1.556,0,0,1-1.556,1.556h-11.2a1.556,1.556,0,0,1-1.556-1.556v-11.2a1.556,1.556,0,0,1,1.556-1.556H27.4V23H22.423A3.423,3.423,0,0,0,19,26.423v11.2A3.423,3.423,0,0,0,22.423,41.048Z" transform="translate(3729 1131.245)"/></g></svg>