<svg xmlns="http://www.w3.org/2000/svg" width="19.04" height="19.052" viewBox="0 0 19.04 19.052"><defs><style>.a{fill:#2588f2;}</style></defs><g transform="translate(-16535 -2187)"><path class="a" d="M166.073,40.8a.531.531,0,0,0-.751,0l-9.373,9.373a.531.531,0,0,0-.15.3l-.5,3.486a.531.531,0,0,0,.591.6l3.544-.439a.531.531,0,0,0,.31-.152l9.373-9.373a.531.531,0,0,0,0-.751Zm-6.949,12.29-2.673.331.375-2.623,5.909-5.909,2.3,2.295Zm6.657-6.657-2.295-2.295,2.211-2.211,2.295,2.295Z" transform="translate(16384.766 2146.36)"/><path class="a" d="M57.645,103.426a.462.462,0,0,1-.473.466H42.541a.466.466,0,0,1-.479-.466V89.541a.477.477,0,0,1,.479-.478h7.844V88H42.541A1.54,1.54,0,0,0,41,89.541v13.886a1.53,1.53,0,0,0,1.541,1.529H57.172a1.525,1.525,0,0,0,1.535-1.529V95.039H57.645Z" transform="translate(16494 2101.096)"/></g></svg>