<svg xmlns="http://www.w3.org/2000/svg" width="16.84" height="16.84" viewBox="0 0 16.84 16.84"><g transform="translate(-7.999 -7.996)"><g transform="translate(7.999 7.996)"><path d="M8.538,8A.6.6,0,0,0,8,8.6V11.4a.6.6,0,1,0,1.2,0V9.2h2.205a.6.6,0,1,0,0-1.2H8.6A.6.6,0,0,0,8.538,8Zm12.83,0a.6.6,0,1,0,.063,1.2h2.205V11.4a.6.6,0,1,0,1.2,0V8.6a.6.6,0,0,0-.6-.6H21.431A.6.6,0,0,0,21.368,8ZM10.543,10a.6.6,0,0,0-.539.6v1.6a.6.6,0,1,0,1.2,0v-.15l1.98,1.98a.6.6,0,1,0,.852-.852l-1.98-1.98h.15a.6.6,0,1,0,0-1.2h-1.6A.6.6,0,0,0,10.543,10Zm10.023,0a.6.6,0,1,0,.063,1.2h.15l-1.98,1.98a.6.6,0,1,0,.852.846l1.98-1.973v.15a.6.6,0,1,0,1.2,0V10.6a.6.6,0,0,0-.6-.6h-1.6a.6.6,0,0,0-.063,0Zm-7.023,8.614a.6.6,0,0,0-.357.182l-1.98,1.973v-.144a.6.6,0,1,0-1.2,0v1.6a.6.6,0,0,0,.6.6h1.6a.6.6,0,1,0,0-1.2h-.157l1.986-1.986a.6.6,0,0,0-.495-1.027Zm5.613,0a.6.6,0,0,0-.357,1.027l1.986,1.986h-.157a.6.6,0,1,0,0,1.2h1.6a.6.6,0,0,0,.6-.6v-1.6a.6.6,0,1,0-1.2,0v.144L19.652,18.8a.6.6,0,0,0-.495-.182Zm-10.562,2.2a.6.6,0,0,0-.6.614v2.807a.6.6,0,0,0,.6.6h2.807a.6.6,0,1,0,0-1.2H9.2V21.428a.6.6,0,0,0-.608-.614Zm15.636,0a.6.6,0,0,0-.6.614v2.205H21.431a.6.6,0,1,0,0,1.2h2.807a.6.6,0,0,0,.6-.6V21.428a.6.6,0,0,0-.608-.614Z" transform="translate(-7.999 -7.996)"/></g></g></svg>