<svg xmlns="http://www.w3.org/2000/svg" width="18.205" height="12.604" viewBox="0 0 18.205 12.604"><defs><style>.a{fill:#124dff;}</style></defs><g transform="translate(-1002 -148)"><path class="a" d="M29.205,23.934a.468.468,0,0,1-.467.467H11.467A.468.468,0,0,1,11,23.934v-.467A.468.468,0,0,1,11.467,23H28.739a.468.468,0,0,1,.467.467Z" transform="translate(991 125)"/><path class="a" d="M34.537,39.934a.468.468,0,0,1-.467.467h-12.6A.468.468,0,0,1,21,39.934v-.467A.468.468,0,0,1,21.467,39h12.6a.468.468,0,0,1,.467.467Z" transform="translate(983.334 112.734)"/><path class="a" d="M38.8,55.934a.468.468,0,0,1-.467.467H29.467A.468.468,0,0,1,29,55.934v-.467A.468.468,0,0,1,29.467,55h8.869a.468.468,0,0,1,.467.467Z" transform="translate(977.201 100.469)"/><path class="a" d="M43.068,71.934a.468.468,0,0,1-.467.467H37.467A.468.468,0,0,1,37,71.934v-.467A.468.468,0,0,1,37.467,71H42.6a.468.468,0,0,1,.467.467Z" transform="translate(971.068 88.203)"/></g></svg>