<svg xmlns="http://www.w3.org/2000/svg" width="12.092" height="12.092" viewBox="0 0 12.092 12.092"><defs><style>.a{fill:#fff;stroke:#fff;stroke-width:0.5px;fill-rule:evenodd;}</style></defs><g transform="translate(0.25 0.25)"><path class="a" d="M37.629.339c0-.012-.007-.024-.011-.036A.432.432,0,0,0,37.6.26a.436.436,0,0,0-.021-.04C37.577.209,37.573.2,37.566.188a.419.419,0,0,0-.117-.117c-.011-.007-.022-.012-.033-.018a.389.389,0,0,0-.039-.021.393.393,0,0,0-.043-.013c-.012,0-.023-.008-.035-.011A.436.436,0,0,0,37.215,0H34.686a.422.422,0,1,0,0,.843H36.2L33.124,3.917a.421.421,0,1,0,.6.6l3.074-3.074V2.951a.422.422,0,1,0,.843,0V.422a.438.438,0,0,0-.008-.083" transform="translate(-26.045)"/><path class="a" d="M3.917,33.124.843,36.2V34.686a.422.422,0,1,0-.843,0v2.529a.421.421,0,0,0,.008.083.353.353,0,0,0,.011.036.432.432,0,0,0,.013.043.407.407,0,0,0,.021.04c.006.011.011.022.017.032a.419.419,0,0,0,.117.117c.01.007.022.012.033.018a.448.448,0,0,0,.04.021.436.436,0,0,0,.043.013.35.35,0,0,0,.036.011.421.421,0,0,0,.083.008H2.951a.422.422,0,1,0,0-.843H1.439L4.513,33.72a.421.421,0,0,0-.6-.6" transform="translate(0 -26.045)"/><path class="a" d="M.422,3.372a.422.422,0,0,0,.422-.422V1.439L3.917,4.513a.422.422,0,1,0,.6-.6L1.439.843H2.951a.422.422,0,1,0,0-.843H.422A.437.437,0,0,0,.339.008C.327.011.315.015.3.019A.394.394,0,0,0,.26.032.437.437,0,0,0,.221.053C.21.059.2.064.188.071A.419.419,0,0,0,.071.188C.064.2.059.209.054.22A.436.436,0,0,0,.032.26.432.432,0,0,0,.019.3.353.353,0,0,0,.008.339.421.421,0,0,0,0,.422V2.951a.422.422,0,0,0,.422.422" transform="translate(0 0)"/><path class="a" d="M37.215,34.264a.422.422,0,0,0-.422.422V36.2l-3.074-3.074a.422.422,0,0,0-.6.6L36.2,36.793H34.685a.422.422,0,0,0,0,.843h2.529a.421.421,0,0,0,.083-.008.348.348,0,0,0,.036-.011.438.438,0,0,0,.043-.013.449.449,0,0,0,.04-.021c.011-.006.022-.011.033-.018a.419.419,0,0,0,.117-.117c.007-.01.012-.021.017-.032a.407.407,0,0,0,.021-.04.434.434,0,0,0,.013-.043c0-.012.008-.024.011-.036a.438.438,0,0,0,.008-.083V34.685a.422.422,0,0,0-.422-.422" transform="translate(-26.044 -26.044)"/></g></svg>