<svg xmlns="http://www.w3.org/2000/svg" width="18.261" height="18.261" viewBox="0 0 18.261 18.261"><defs><style>.a{fill:#2588f2;}</style></defs><path class="a" d="M9.869,21.638v-4.87L7.928,18.71A7.709,7.709,0,0,1,14.13,6.42V5A9.126,9.126,0,0,0,6.916,19.722L5,21.638Z" transform="translate(-5 -5)"/><path class="a" d="M55.146,6.861,55.5,5.485a9.136,9.136,0,0,0-1.3-.233l-.15,1.412a7.728,7.728,0,0,1,1.1.2Z" transform="translate(-44.098 -5.201)"/><path class="a" d="M87.576,36.357l-1.353.431a7.68,7.68,0,0,1,.259,1.082l1.4-.229A9.094,9.094,0,0,0,87.576,36.357Z" transform="translate(-69.742 -29.995)"/><path class="a" d="M50,89.108a9.218,9.218,0,0,0,1.315-.094l-.2-1.406A7.789,7.789,0,0,1,50,87.688Z" transform="translate(-40.869 -70.847)"/><path class="a" d="M74.928,15.14l-.9,1.1a7.809,7.809,0,0,1,.81.765l1.047-.96a9.223,9.223,0,0,0-.958-.905Z" transform="translate(-60.023 -13.083)"/><path class="a" d="M81.43,25.494a7.737,7.737,0,0,1,.559.963l1.277-.622a9.163,9.163,0,0,0-.662-1.141Z" transform="translate(-65.922 -20.699)"/><path class="a" d="M65.2,8.468,64.65,9.779a7.677,7.677,0,0,1,.992.5l.732-1.217a9.093,9.093,0,0,0-1.176-.6Z" transform="translate(-52.547 -7.765)"/><path class="a" d="M85.165,60.144a7.661,7.661,0,0,1-.373,1.048l1.3.573a9.135,9.135,0,0,0,.443-1.243Z" transform="translate(-68.601 -48.955)"/><path class="a" d="M87.764,49.176c0,.049,0,.1,0,.146a7.841,7.841,0,0,1-.06.966l1.409.177a9.226,9.226,0,0,0,.071-1.143c0-.058,0-.115,0-.173Z" transform="translate(-70.924 -40.192)"/><path class="a" d="M80.841,70.908l-1.2-.754a7.75,7.75,0,0,1-.658.9l1.083.919A9.2,9.2,0,0,0,80.841,70.908Z" transform="translate(-63.969 -56.934)"/><path class="a" d="M60.836,84.888l.4,1.362a9.1,9.1,0,0,0,1.235-.467l-.6-1.288A7.686,7.686,0,0,1,60.836,84.888Z" transform="translate(-49.507 -68.365)"/><path class="a" d="M72.594,79.565l-.94-1.064a7.735,7.735,0,0,1-.886.675l.777,1.189A9.176,9.176,0,0,0,72.594,79.565Z" transform="translate(-57.423 -63.588)"/><path class="a" d="M30.635,30.062a.406.406,0,0,0-.574.574l3,3a1.024,1.024,0,1,0,1.953.2l2.585-1.71a.406.406,0,0,0-.448-.677l-2.584,1.709a1.007,1.007,0,0,0-.932-.094Z" transform="translate(-24.881 -24.882)"/></svg>