<svg xmlns="http://www.w3.org/2000/svg" width="25.254" height="23.726" viewBox="0 0 25.254 23.726"><defs><style>.a{fill:#767676;}</style></defs><g transform="translate(-56 -68.201)"><path class="a" d="M245.173,382.933a.73.73,0,1,0,.73.73A.73.73,0,0,0,245.173,382.933Z" transform="translate(-176.546 -294.862)"/><path class="a" d="M172.565,382.933a.73.73,0,1,0,.73.73A.73.73,0,0,0,172.565,382.933Z" transform="translate(-108.522 -294.862)"/><path class="a" d="M317.782,382.933a.73.73,0,1,0,.73.73A.73.73,0,0,0,317.782,382.933Z" transform="translate(-244.571 -294.862)"/><path class="a" d="M152.026,196.549A1.545,1.545,0,0,0,150.48,195H138.546A1.545,1.545,0,0,0,137,196.549v7.1h15.026Z" transform="translate(-75.886 -118.794)"/><path class="a" d="M390.39,382.933a.73.73,0,1,0,.729.73A.73.73,0,0,0,390.39,382.933Z" transform="translate(-312.595 -294.862)"/><path class="a" d="M56,346v6.187H81.254V346Zm3.459,4.675a1.613,1.613,0,1,1,1.613-1.613A1.613,1.613,0,0,1,59.459,350.675Zm4.584,0a1.613,1.613,0,1,1,1.613-1.613A1.613,1.613,0,0,1,64.043,350.675Zm4.584,0a1.613,1.613,0,1,1,1.613-1.613A1.613,1.613,0,0,1,68.627,350.675Zm4.584,0a1.613,1.613,0,1,1,1.613-1.613A1.613,1.613,0,0,1,73.211,350.675Zm4.584,0a1.613,1.613,0,1,1,1.613-1.613A1.613,1.613,0,0,1,77.795,350.675Z" transform="translate(0 -260.26)"/><path class="a" d="M99.956,382.933a.73.73,0,1,0,.73.73A.73.73,0,0,0,99.956,382.933Z" transform="translate(-40.497 -294.862)"/><path class="a" d="M174.884,73.449a4.294,4.294,0,1,1,8.586,0v2.189h.884V73.449a5.177,5.177,0,1,0-10.354,0v2.189h.884Z" transform="translate(-110.55)"/></g></svg>