<svg xmlns="http://www.w3.org/2000/svg" width="17.246" height="23.517" viewBox="0 0 17.246 23.517"><defs><style>.a{fill:#6dccf9;}</style></defs><path class="a" d="M15.392,2.273A.392.392,0,0,0,15,2.665V3.841c0,.005,0,.01,0,.015s0,.009,0,.014V25.4a.392.392,0,1,0,.784,0v-9.26a21.157,21.157,0,0,0,4.847.64,8.592,8.592,0,0,0,3.959-.8c3-1.592,7.077,0,7.118.018a.393.393,0,0,0,.537-.364V3.87A.391.391,0,0,0,32,3.506c-.18-.073-4.452-1.745-7.776.018-2.634,1.4-7.258.349-8.439.046v-.9a.392.392,0,0,0-.392-.392Z" transform="translate(-15 -2.273)"/></svg>