<?xml version="1.0" encoding="utf-8"?>
<!-- Generator: Adobe Illustrator 16.0.0, SVG Export Plug-In . SVG Version: 6.00 Build 0)  -->
<!DOCTYPE svg PUBLIC "-//W3C//DTD SVG 1.1//EN" "http://www.w3.org/Graphics/SVG/1.1/DTD/svg11.dtd">
<svg version="1.1" id="Layer_1" xmlns="http://www.w3.org/2000/svg" xmlns:xlink="http://www.w3.org/1999/xlink" x="0px" y="0px"
	 width="21.635px" height="21.635px" viewBox="0 0 21.635 21.635" enable-background="new 0 0 21.635 21.635" xml:space="preserve">
<g transform="translate(-5 -5)">
	<g transform="translate(5 5)">
		<path fill="#FFFFFF" d="M19.179,14.911V6.723c1.816-0.539,2.853-2.449,2.314-4.266c-0.539-1.817-2.449-2.854-4.267-2.314
			c-1.116,0.331-1.987,1.204-2.316,2.32H6.725C6.189,0.645,4.281-0.395,2.463,0.141C0.645,0.676-0.395,2.584,0.141,4.402
			C0.47,5.52,1.343,6.394,2.46,6.724v8.187c-1.817,0.537-2.855,2.447-2.317,4.265s2.447,2.854,4.265,2.317
			c1.113-0.33,1.984-1.199,2.316-2.313h8.19c0.539,1.818,2.45,2.854,4.268,2.314c1.818-0.54,2.854-2.451,2.314-4.268
			C21.164,16.112,20.292,15.241,19.179,14.911L19.179,14.911z M14.91,17.211H6.725c-0.331-1.104-1.195-1.97-2.3-2.3V6.723
			c1.104-0.33,1.968-1.191,2.3-2.294h8.19c0.332,1.103,1.196,1.964,2.3,2.294v8.187c-1.108,0.329-1.975,1.196-2.305,2.304V17.211z
			 M18.192,1.967c0.814,0.02,1.459,0.695,1.44,1.51c-0.019,0.785-0.648,1.417-1.433,1.439h-0.012
			c-0.814-0.022-1.455-0.701-1.434-1.515c0.022-0.785,0.654-1.415,1.439-1.434H18.192z M1.967,3.442
			C1.964,2.628,2.622,1.965,3.436,1.962s1.477,0.655,1.479,1.469l0,0v0.016v0.011C4.906,4.263,4.253,4.912,3.448,4.916H3.437
			C2.625,4.912,1.969,4.254,1.967,3.442z M3.442,19.668c-0.814,0.001-1.476-0.658-1.477-1.474c-0.001-0.814,0.659-1.475,1.473-1.477
			c0.811-0.001,1.471,0.653,1.477,1.465v0.016v0.011C4.906,19.017,4.25,19.667,3.442,19.668z M18.192,19.668
			c-0.814,0-1.475-0.66-1.475-1.476c0-0.814,0.66-1.475,1.475-1.475c0.815,0,1.476,0.66,1.476,1.475
			C19.667,19.007,19.007,19.667,18.192,19.668z"/>
		<path fill="#FFFFFF" d="M14.095,6.556H7.539c-0.543,0-0.983,0.44-0.983,0.983c0,0.543,0.44,0.983,0.983,0.983h6.556
			c0.543,0,0.984-0.44,0.984-0.983C15.079,6.996,14.638,6.556,14.095,6.556z"/>
		<path fill="#FFFFFF" d="M14.095,9.834H7.539c-0.543,0-0.983,0.44-0.983,0.983s0.44,0.983,0.983,0.983h6.556
			c0.543,0,0.984-0.44,0.984-0.983S14.638,9.834,14.095,9.834z"/>
		<path fill="#FFFFFF" d="M14.095,13.112H7.539c-0.543,0-0.983,0.439-0.983,0.983c0,0.543,0.44,0.983,0.983,0.983h6.556
			c0.543,0,0.984-0.44,0.984-0.983C15.079,13.552,14.638,13.112,14.095,13.112z"/>
	</g>
</g>
</svg>
