<svg xmlns="http://www.w3.org/2000/svg" width="21.816" height="20.592" viewBox="0 0 21.816 20.592"><defs><style>.a{fill:#6dccf9;}</style></defs><g transform="translate(-5.18 -6.685)"><path class="a" d="M20.19,21.623h3.73a.443.443,0,0,0,.443-.443v-1.59a.443.443,0,0,0-.431-.443,20.059,20.059,0,0,1-3.254-.37.439.439,0,0,0-.517.317,18,18,0,0,0-.407,2.034.439.439,0,0,0,.435.5Z" transform="translate(-8.645 -7.167)"/><path class="a" d="M25.749,10.826v-3.7a.439.439,0,0,0-.46-.439l-.3.028a.407.407,0,0,0-.155.045,6.9,6.9,0,0,0-2.741,3.587.443.443,0,0,0,.329.6,20.043,20.043,0,0,0,2.867.338.447.447,0,0,0,.46-.464Z" transform="translate(-10.015 -0.002)"/><path class="a" d="M12.007,16.7a14.642,14.642,0,0,1-2.034-.761.439.439,0,0,0-.537.122A10.314,10.314,0,0,0,7.7,19.339a.443.443,0,0,0,.407.578h3.278a.447.447,0,0,0,.439-.382,18.229,18.229,0,0,1,.464-2.3A.447.447,0,0,0,12.007,16.7Z" transform="translate(-1.482 -5.461)"/><path class="a" d="M16.893,8.87a10.347,10.347,0,0,0-3.083,2.172,12.893,12.893,0,0,0,2.082.793.439.439,0,0,0,.537-.264,11.2,11.2,0,0,1,1.025-2.062.443.443,0,0,0-.561-.639Z" transform="translate(-5.12 -1.272)"/><path class="a" d="M36.6,18.764a20.059,20.059,0,0,1-3.254.37.439.439,0,0,0-.407.443v1.59a.439.439,0,0,0,.431.443h3.746a.439.439,0,0,0,.439-.5,18,18,0,0,0-.407-2.034.439.439,0,0,0-.549-.309Z" transform="translate(-16.47 -7.155)"/><path class="a" d="M44.291,10.578a10.339,10.339,0,0,0-2.6-1.708.443.443,0,0,0-.561.639,11.2,11.2,0,0,1,1.025,2.062.439.439,0,0,0,.537.264,14.263,14.263,0,0,0,1.476-.5.447.447,0,0,0,.122-.761Z" transform="translate(-21.289 -1.272)"/><path class="a" d="M45.8,19.917H49.08a.443.443,0,0,0,.407-.578,10.314,10.314,0,0,0-1.708-3.282.439.439,0,0,0-.537-.122,14.641,14.641,0,0,1-2.034.761.447.447,0,0,0-.309.541,18.229,18.229,0,0,1,.464,2.3.447.447,0,0,0,.439.382Z" transform="translate(-23.557 -5.461)"/><path class="a" d="M33.656,6.716l-.3-.028a.435.435,0,0,0-.476.439v3.7a.443.443,0,0,0,.456.464,20.043,20.043,0,0,0,2.888-.317.443.443,0,0,0,.329-.6,6.883,6.883,0,0,0-2.741-3.587A.407.407,0,0,0,33.656,6.716Z" transform="translate(-16.433)"/><path class="a" d="M11.454,38.21H8.176a.443.443,0,0,0-.407.578A10.314,10.314,0,0,0,9.478,42.07a.439.439,0,0,0,.537.122,14.145,14.145,0,0,1,2.034-.761.443.443,0,0,0,.309-.537,18.148,18.148,0,0,1-.464-2.3A.447.447,0,0,0,11.454,38.21Z" transform="translate(-1.524 -18.703)"/><path class="a" d="M41.692,50.718a10.168,10.168,0,0,0,2.6-1.712.443.443,0,0,0-.122-.736,14.263,14.263,0,0,0-1.476-.517.439.439,0,0,0-.537.264,11.2,11.2,0,0,1-1.025,2.062.443.443,0,0,0,.561.639Z" transform="translate(-21.289 -24.354)"/><path class="a" d="M37.089,38.21h-3.73a.439.439,0,0,0-.439.443v1.59a.439.439,0,0,0,.407.443,19.615,19.615,0,0,1,3.254.374.447.447,0,0,0,.517-.321,18,18,0,0,0,.407-2.034.439.439,0,0,0-.415-.5Z" transform="translate(-16.458 -18.703)"/><path class="a" d="M45.209,41.431a14.146,14.146,0,0,1,2.034.761.439.439,0,0,0,.537-.122,10.314,10.314,0,0,0,1.737-3.282.443.443,0,0,0-.407-.578H45.8a.447.447,0,0,0-.439.382,18.148,18.148,0,0,1-.464,2.3A.443.443,0,0,0,45.209,41.431Z" transform="translate(-23.557 -18.703)"/><path class="a" d="M8.656,30a.626.626,0,1,0,.626.626A.626.626,0,0,0,8.656,30Z" transform="translate(-1.691 -13.832)"/><path class="a" d="M13.81,48.546a10.347,10.347,0,0,0,3.083,2.172.443.443,0,0,0,.561-.639,11.2,11.2,0,0,1-1.025-2.062.439.439,0,0,0-.537-.264,12.893,12.893,0,0,0-2.082.793Z" transform="translate(-5.12 -24.354)"/><path class="a" d="M26.553,27.54H5.623a.443.443,0,0,0-.443.443v2.741a.443.443,0,0,0,.443.443H26.553A.443.443,0,0,0,27,30.725V27.983a.443.443,0,0,0-.443-.443ZM8.495,30.692a.305.305,0,0,1-.216.089.321.321,0,0,1-.216-.089L7.6,30.22a1.22,1.22,0,0,1-1.863-1.057,1.234,1.234,0,0,1,2.469,0,1.22,1.22,0,0,1-.175.626l.468.472a.3.3,0,0,1,0,.431Z" transform="translate(0 -12.373)"/><path class="a" d="M32.88,46.493v3.7a.435.435,0,0,0,.476.439l.3-.028a.407.407,0,0,0,.155-.045,6.92,6.92,0,0,0,2.741-3.587.443.443,0,0,0-.329-.6,20.043,20.043,0,0,0-2.888-.317.443.443,0,0,0-.456.443Z" transform="translate(-16.434 -23.354)"/><path class="a" d="M24.935,50.6l.3.028a.439.439,0,0,0,.48-.439v-3.7a.447.447,0,0,0-.46-.443,20.043,20.043,0,0,0-2.888.317.447.447,0,0,0-.334.6,6.925,6.925,0,0,0,2.745,3.587A.407.407,0,0,0,24.935,50.6Z" transform="translate(-9.982 -23.354)"/><path class="a" d="M20.682,41.061a19.616,19.616,0,0,1,3.254-.374.443.443,0,0,0,.431-.443v-1.59a.443.443,0,0,0-.456-.443h-3.73a.439.439,0,0,0-.439.5,18,18,0,0,0,.407,2.034A.447.447,0,0,0,20.682,41.061Z" transform="translate(-8.637 -18.703)"/></g></svg>