<svg xmlns="http://www.w3.org/2000/svg" width="26.366" height="28.612" viewBox="0 0 26.366 28.612"><defs><style>.a{fill:#6dccf9;}</style></defs><g transform="translate(-6.305 -2.5)"><g transform="translate(6.305 2.5)"><path class="a" d="M30.148,63.331a31,31,0,0,1-3.282.9,3.915,3.915,0,0,1-2.71,1.686,5.727,5.727,0,0,1-1.054.09,26.811,26.811,0,0,1-3.282-.181.839.839,0,0,1-.813-.572.6.6,0,0,1,.662-.662c.09,0,.181.03.3.03a16.945,16.945,0,0,0,4.034.09c1.746-.331,2.258-1.385,2.138-2.288a1.424,1.424,0,0,0-1.505-1.355,26.746,26.746,0,0,1-4.064-.12,27.34,27.34,0,0,0-4.426-.03,16.875,16.875,0,0,0-6.292,2.71c-1.144.783-2.409,1.716-3.191,2.258a.874.874,0,0,0-.181,1.234L9.826,71.55a.837.837,0,0,0,1.2.151l1.265-.963a1.109,1.109,0,0,1,1.054-.181,28.732,28.732,0,0,0,6.323,1.295c3.492.181,10.176-3.944,12.1-5.269A1.821,1.821,0,0,0,30.148,63.331Z" transform="translate(-6.305 -43.279)"/><path class="a" d="M35.842,12.1h1.234a6.107,6.107,0,0,0,.6,1.445l-.873.843a.527.527,0,0,0,0,.753L38.461,16.8a.527.527,0,0,0,.753,0l.873-.873a7.688,7.688,0,0,0,1.445.6v1.2a.54.54,0,0,0,.542.542h2.318a.54.54,0,0,0,.542-.542V16.5a6.108,6.108,0,0,0,1.445-.6l.843.873a.527.527,0,0,0,.753,0l1.656-1.656a.527.527,0,0,0,0-.753l-.873-.843a7.688,7.688,0,0,0,.6-1.445h1.2a.54.54,0,0,0,.542-.542V9.214a.54.54,0,0,0-.542-.542H49.33a6.107,6.107,0,0,0-.6-1.445l.873-.873a.527.527,0,0,0,0-.753L47.945,3.945a.527.527,0,0,0-.753,0l-.843.9a7.688,7.688,0,0,0-1.445-.6v-1.2a.54.54,0,0,0-.542-.542H42.044a.54.54,0,0,0-.542.542V4.276a6.107,6.107,0,0,0-1.445.6l-.873-.843a.527.527,0,0,0-.753,0L36.775,5.691a.527.527,0,0,0,0,.753l.873.873a7.688,7.688,0,0,0-.6,1.445h-1.2A.54.54,0,0,0,35.3,9.3v2.318A.531.531,0,0,0,35.842,12.1Zm7.346-5.66a3.944,3.944,0,1,1-3.944,3.944A3.958,3.958,0,0,1,43.188,6.444Z" transform="translate(-26.57 -2.5)"/><path class="a" d="M55.006,25.964a.62.62,0,0,0,.512.211.854.854,0,0,0,.512-.211l2.258-2.439a.682.682,0,1,0-.994-.933l-1.746,1.9-.692-.753a.682.682,0,0,0-.994.933Z" transform="translate(-39.412 -16.39)"/></g></g></svg>