<svg xmlns="http://www.w3.org/2000/svg" width="21.635" height="21.635" viewBox="0 0 21.635 21.635"><defs><style>.a{fill:#6dccf9;}</style></defs><g transform="translate(-5 -5)"><g transform="translate(5 5)"><path class="a" d="M24.178,19.911V11.723A3.432,3.432,0,1,0,19.91,7.463H11.725A3.432,3.432,0,1,0,7.46,11.724v8.187a3.432,3.432,0,1,0,4.263,4.27h8.19a3.433,3.433,0,1,0,4.265-4.269Zm-4.268,2.3H11.725a3.425,3.425,0,0,0-2.3-2.3V11.723a3.425,3.425,0,0,0,2.3-2.294h8.19a3.425,3.425,0,0,0,2.3,2.294v8.187A3.425,3.425,0,0,0,19.91,22.214ZM23.193,6.967A1.475,1.475,0,0,1,23.2,9.916h-.011a1.475,1.475,0,0,1,.005-2.949ZM6.967,8.442a1.474,1.474,0,0,1,2.948-.011l0,.016,0,.011A1.475,1.475,0,0,1,8.448,9.916H8.437A1.477,1.477,0,0,1,6.967,8.442ZM8.442,24.668a1.475,1.475,0,1,1,1.473-1.486l0,.016,0,.011A1.476,1.476,0,0,1,8.442,24.668Zm14.751,0a1.475,1.475,0,1,1,1.475-1.475A1.478,1.478,0,0,1,23.193,24.668Z" transform="translate(-5 -5)"/><path class="a" d="M39.812,32.273H33.256a.983.983,0,0,0,0,1.967h6.556a.983.983,0,1,0,0-1.967Z" transform="translate(-25.717 -25.717)"/><path class="a" d="M39.812,45.909H33.256a.983.983,0,0,0,0,1.967h6.556a.983.983,0,1,0,0-1.967Z" transform="translate(-25.717 -36.075)"/><path class="a" d="M39.812,59.546H33.256a.983.983,0,0,0,0,1.967h6.556a.983.983,0,1,0,0-1.967Z" transform="translate(-25.717 -46.434)"/></g></g></svg>