<?xml version="1.0" encoding="utf-8"?>
<!-- Generator: Adobe Illustrator 16.0.0, SVG Export Plug-In . SVG Version: 6.00 Build 0)  -->
<!DOCTYPE svg PUBLIC "-//W3C//DTD SVG 1.1//EN" "http://www.w3.org/Graphics/SVG/1.1/DTD/svg11.dtd">
<svg version="1.1" id="Layer_1" xmlns="http://www.w3.org/2000/svg" xmlns:xlink="http://www.w3.org/1999/xlink" x="0px" y="0px"
	 width="26.367px" height="28.611px" viewBox="0 0 26.367 28.611" enable-background="new 0 0 26.367 28.611" xml:space="preserve">
<g transform="translate(-6.305 -2.5)">
	<g transform="translate(6.305 2.5)">
		<path fill="#FFFFFF" d="M23.843,20.052c-1.077,0.36-2.172,0.66-3.282,0.9c-0.623,0.921-1.608,1.534-2.71,1.686
			c-0.348,0.063-0.701,0.093-1.055,0.09c-1.096,0.007-2.191-0.054-3.281-0.181c-0.367,0.008-0.696-0.224-0.813-0.572
			c-0.036-0.329,0.201-0.626,0.531-0.662c0.043-0.005,0.087-0.005,0.131,0c0.09,0,0.181,0.03,0.3,0.03
			c1.336,0.19,2.691,0.221,4.035,0.09c1.745-0.331,2.258-1.385,2.137-2.288c-0.036-0.785-0.703-1.393-1.488-1.355
			c-0.006,0-0.011,0-0.016,0.001c-1.356,0.063-2.715,0.022-4.064-0.12c-1.472-0.13-2.952-0.14-4.426-0.03
			c-2.26,0.464-4.402,1.386-6.292,2.71c-1.144,0.783-2.409,1.716-3.191,2.258c-0.39,0.285-0.475,0.832-0.19,1.222
			c0.003,0.004,0.006,0.009,0.009,0.013l3.344,4.429c0.275,0.371,0.8,0.449,1.171,0.174c0.01-0.007,0.02-0.015,0.029-0.022
			l1.265-0.963c0.297-0.237,0.695-0.306,1.054-0.182c2.052,0.668,4.173,1.103,6.323,1.296c3.492,0.181,10.176-3.944,12.1-5.27
			c0.867-0.51,1.156-1.626,0.646-2.493C25.648,20.029,24.682,19.704,23.843,20.052z"/>
		<path fill="#FFFFFF" d="M9.272,9.6h1.234c0.137,0.506,0.339,0.991,0.6,1.445l-0.873,0.843c-0.208,0.204-0.211,0.537-0.008,0.745
			c0.003,0.003,0.005,0.006,0.008,0.008l1.658,1.659c0.204,0.208,0.537,0.211,0.745,0.008c0.002-0.003,0.005-0.005,0.008-0.008
			l0.873-0.873c0.46,0.249,0.943,0.449,1.445,0.6v1.2c-0.002,0.299,0.239,0.541,0.537,0.542c0.002,0,0.003,0,0.004,0h2.318
			c0.299,0.001,0.541-0.239,0.542-0.538c0-0.001,0-0.002,0-0.004V14c0.505-0.138,0.991-0.339,1.445-0.601l0.843,0.873
			c0.203,0.208,0.537,0.212,0.746,0.008c0.002-0.002,0.004-0.005,0.007-0.008l1.656-1.655c0.208-0.204,0.212-0.538,0.008-0.746
			c-0.003-0.002-0.005-0.005-0.008-0.007l-0.873-0.844c0.249-0.46,0.45-0.944,0.601-1.444h1.199c0.299,0.001,0.541-0.24,0.542-0.538
			c0-0.002,0-0.003,0-0.004v-2.32c0.001-0.298-0.239-0.541-0.538-0.542c-0.001,0-0.002,0-0.004,0h-1.229
			c-0.137-0.506-0.338-0.991-0.6-1.445l0.873-0.873c0.208-0.203,0.212-0.537,0.008-0.745c-0.002-0.003-0.005-0.005-0.008-0.008
			l-1.658-1.656c-0.203-0.207-0.537-0.211-0.744-0.007c-0.004,0.002-0.006,0.005-0.008,0.007l-0.844,0.9
			c-0.46-0.249-0.943-0.449-1.445-0.6v-1.2c0.002-0.299-0.239-0.541-0.537-0.542c-0.002,0-0.003,0-0.004,0h-2.318
			c-0.299-0.001-0.541,0.239-0.542,0.538c0,0.001,0,0.002,0,0.004v1.23c-0.505,0.138-0.991,0.339-1.445,0.601l-0.873-0.843
			c-0.204-0.208-0.537-0.212-0.745-0.008c-0.002,0.002-0.005,0.005-0.008,0.008l-1.656,1.657c-0.208,0.204-0.211,0.538-0.008,0.746
			c0.002,0.002,0.005,0.005,0.008,0.007l0.873,0.873c-0.249,0.46-0.45,0.944-0.6,1.445h-1.2C8.98,6.258,8.734,6.495,8.73,6.794
			c0,0.002,0,0.004,0,0.006v2.318C8.756,9.397,8.993,9.607,9.272,9.6z M16.619,3.94c2.178,0,3.943,1.767,3.943,3.944
			s-1.766,3.944-3.943,3.944c-2.179,0-3.945-1.767-3.945-3.944c0.01-2.174,1.771-3.933,3.945-3.94V3.94z"/>
		<path fill="#FFFFFF" d="M15.593,9.574c0.129,0.146,0.318,0.225,0.513,0.211c0.189-0.012,0.37-0.086,0.513-0.211l2.258-2.439
			c0.266-0.266,0.267-0.698,0-0.965c-0.266-0.267-0.697-0.267-0.964-0.001c-0.011,0.011-0.021,0.021-0.03,0.033l-1.746,1.899
			l-0.692-0.753c-0.267-0.266-0.698-0.266-0.964,0.001c-0.254,0.255-0.268,0.662-0.029,0.933L15.593,9.574z"/>
	</g>
</g>
</svg>
