<?xml version="1.0" encoding="utf-8"?>
<!-- Generator: Adobe Illustrator 16.0.0, SVG Export Plug-In . SVG Version: 6.00 Build 0)  -->
<!DOCTYPE svg PUBLIC "-//W3C//DTD SVG 1.1//EN" "http://www.w3.org/Graphics/SVG/1.1/DTD/svg11.dtd">
<svg version="1.1" id="Layer_1" xmlns="http://www.w3.org/2000/svg" xmlns:xlink="http://www.w3.org/1999/xlink" x="0px" y="0px"
	 width="21.816px" height="20.592px" viewBox="0 0 21.816 20.592" enable-background="new 0 0 21.816 20.592" xml:space="preserve">
<g transform="translate(-5.18 -6.685)">
	<path fill="#FFFFFF" d="M11.545,14.456h3.73c0.244,0,0.442-0.198,0.442-0.443l0,0v-1.59c0-0.24-0.19-0.437-0.431-0.443
		c-1.093-0.034-2.182-0.158-3.254-0.37c-0.229-0.049-0.457,0.09-0.518,0.317c-0.175,0.669-0.311,1.349-0.406,2.034
		c-0.034,0.24,0.133,0.462,0.373,0.496c0.021,0.003,0.041,0.004,0.062,0.004L11.545,14.456z"/>
	<path fill="#FFFFFF" d="M15.734,10.824v-3.7c0-0.243-0.196-0.439-0.438-0.439c-0.008,0-0.015,0-0.021,0l-0.301,0.028
		c-0.054,0.004-0.106,0.02-0.154,0.045c-1.29,0.854-2.256,2.118-2.741,3.587c-0.091,0.227,0.02,0.485,0.246,0.576
		c0.027,0.011,0.055,0.019,0.083,0.024c0.946,0.182,1.904,0.294,2.867,0.338c0.246,0.007,0.452-0.187,0.46-0.434
		c0-0.01,0-0.021,0-0.031V10.824z"/>
	<path fill="#FFFFFF" d="M10.525,11.239c-0.696-0.203-1.376-0.458-2.034-0.761c-0.186-0.091-0.409-0.04-0.537,0.122
		c-0.772,0.979-1.36,2.089-1.736,3.278c-0.074,0.233,0.054,0.482,0.287,0.557c0.039,0.013,0.079,0.02,0.12,0.021h3.278
		c0.22-0.001,0.406-0.164,0.438-0.382c0.105-0.776,0.26-1.544,0.464-2.3C10.865,11.55,10.743,11.317,10.525,11.239z"/>
	<path fill="#FFFFFF" d="M11.773,7.598C10.621,8.127,9.576,8.863,8.69,9.77c0.67,0.324,1.367,0.589,2.082,0.793
		c0.221,0.066,0.455-0.049,0.537-0.264c0.271-0.721,0.613-1.412,1.025-2.063c0.131-0.206,0.07-0.48-0.137-0.611
		C12.069,7.545,11.91,7.534,11.773,7.598z"/>
	<path fill="#FFFFFF" d="M20.13,11.609c-1.072,0.212-2.161,0.336-3.254,0.37c-0.231,0.017-0.41,0.211-0.407,0.443v1.59
		c-0.002,0.241,0.19,0.438,0.432,0.443h3.745c0.243,0.002,0.441-0.192,0.443-0.435c0.001-0.022-0.001-0.044-0.004-0.065
		c-0.097-0.685-0.232-1.364-0.407-2.034c-0.062-0.234-0.302-0.374-0.536-0.313c-0.004,0.001-0.009,0.002-0.013,0.003L20.13,11.609z"
		/>
	<path fill="#FFFFFF" d="M23.002,9.306c-0.775-0.697-1.652-1.273-2.6-1.708c-0.223-0.104-0.485-0.007-0.589,0.215
		C19.75,7.95,19.76,8.109,19.841,8.237c0.412,0.65,0.755,1.342,1.025,2.063c0.082,0.215,0.316,0.33,0.537,0.264
		c0.5-0.14,0.993-0.307,1.476-0.5c0.229-0.09,0.344-0.349,0.254-0.579c-0.028-0.071-0.073-0.133-0.132-0.182L23.002,9.306z"/>
	<path fill="#FFFFFF" d="M22.243,14.456h3.279c0.245-0.008,0.437-0.213,0.429-0.458c-0.002-0.041-0.009-0.082-0.021-0.121
		c-0.366-1.188-0.945-2.3-1.708-3.282c-0.128-0.162-0.352-0.213-0.537-0.122c-0.658,0.304-1.338,0.558-2.033,0.761
		c-0.232,0.067-0.37,0.307-0.31,0.541c0.204,0.756,0.359,1.524,0.464,2.3c0.032,0.218,0.219,0.38,0.439,0.382L22.243,14.456z"/>
	<path fill="#FFFFFF" d="M17.223,6.716l-0.3-0.028c-0.239-0.022-0.451,0.153-0.474,0.392c-0.002,0.016-0.003,0.031-0.002,0.047v3.7
		c-0.012,0.244,0.177,0.452,0.421,0.463c0.012,0.001,0.023,0.001,0.035,0c0.969-0.036,1.934-0.142,2.888-0.317
		c0.24-0.045,0.398-0.277,0.353-0.518c-0.005-0.028-0.013-0.056-0.023-0.083c-0.484-1.47-1.45-2.733-2.741-3.587
		C17.333,6.752,17.279,6.728,17.223,6.716z"/>
	<path fill="#FFFFFF" d="M9.93,19.507H6.652c-0.245,0.008-0.437,0.213-0.429,0.458c0.002,0.04,0.009,0.08,0.021,0.119
		c0.367,1.188,0.946,2.301,1.709,3.283c0.128,0.161,0.352,0.212,0.537,0.121c0.657-0.305,1.337-0.56,2.034-0.761
		c0.231-0.065,0.368-0.304,0.309-0.537c-0.204-0.756-0.359-1.524-0.464-2.3C10.339,19.672,10.151,19.508,9.93,19.507z"/>
	<path fill="#FFFFFF" d="M20.403,26.364c0.949-0.434,1.826-1.011,2.6-1.712c0.182-0.163,0.196-0.444,0.032-0.626
		c-0.043-0.047-0.096-0.084-0.154-0.109c-0.482-0.199-0.975-0.372-1.476-0.518c-0.221-0.066-0.455,0.049-0.537,0.264
		c-0.271,0.721-0.613,1.412-1.025,2.063c-0.131,0.207-0.069,0.48,0.137,0.611C20.107,26.417,20.267,26.428,20.403,26.364
		L20.403,26.364z"/>
	<path fill="#FFFFFF" d="M20.631,19.507h-3.729c-0.243-0.001-0.439,0.196-0.439,0.438c0,0.002,0,0.003,0,0.004v1.59
		c-0.003,0.232,0.176,0.427,0.407,0.443c1.093,0.033,2.182,0.159,3.254,0.374c0.229,0.045,0.455-0.095,0.517-0.321
		c0.175-0.669,0.311-1.348,0.407-2.033c0.034-0.24-0.133-0.463-0.373-0.496c-0.014-0.002-0.028-0.004-0.042-0.004L20.631,19.507z"/>
	<path fill="#FFFFFF" d="M21.652,22.728c0.696,0.201,1.376,0.456,2.033,0.761c0.186,0.091,0.409,0.04,0.537-0.121
		c0.773-0.98,1.361-2.093,1.737-3.283c0.074-0.232-0.054-0.482-0.287-0.557c-0.038-0.012-0.079-0.02-0.12-0.021h-3.31
		c-0.221,0.001-0.407,0.163-0.439,0.382c-0.104,0.775-0.26,1.544-0.464,2.3C21.278,22.424,21.418,22.664,21.652,22.728z"/>
	<path fill="#FFFFFF" d="M6.965,16.168c-0.346,0-0.626,0.28-0.626,0.626s0.28,0.626,0.626,0.626s0.626-0.28,0.626-0.626l0,0
		C7.591,16.448,7.311,16.168,6.965,16.168z"/>
	<path fill="#FFFFFF" d="M8.69,24.192c0.887,0.906,1.932,1.643,3.083,2.172c0.223,0.104,0.485,0.008,0.589-0.215
		c0.063-0.137,0.054-0.297-0.027-0.424c-0.412-0.65-0.755-1.342-1.025-2.063c-0.082-0.215-0.316-0.33-0.537-0.264
		C10.057,23.603,9.359,23.868,8.69,24.192z"/>
	<path fill="#FFFFFF" d="M26.553,15.167H5.623c-0.245,0-0.443,0.198-0.443,0.443l0,0v2.741c0,0.245,0.198,0.442,0.443,0.442l0,0
		h20.93c0.245,0.003,0.445-0.193,0.447-0.438c0-0.001,0-0.002,0-0.003V15.61c0-0.245-0.198-0.443-0.443-0.443l0,0H26.553z
		 M8.495,18.319c-0.058,0.058-0.135,0.09-0.216,0.09c-0.081-0.002-0.158-0.033-0.217-0.09L7.6,17.847
		c-0.572,0.354-1.324,0.179-1.68-0.394c-0.123-0.199-0.187-0.429-0.183-0.664c0-0.682,0.553-1.234,1.234-1.234
		s1.234,0.553,1.234,1.234c-0.001,0.221-0.062,0.437-0.175,0.626l0.468,0.472c0.119,0.115,0.122,0.306,0.007,0.424
		c-0.002,0.003-0.005,0.005-0.007,0.007H8.495z"/>
	<path fill="#FFFFFF" d="M16.446,23.139v3.699c-0.004,0.24,0.188,0.438,0.429,0.441c0.016,0,0.031,0,0.047-0.002l0.3-0.027
		c0.055-0.005,0.107-0.021,0.155-0.045c1.289-0.855,2.254-2.119,2.741-3.588c0.091-0.227-0.02-0.484-0.247-0.576
		c-0.026-0.01-0.054-0.018-0.082-0.023c-0.954-0.176-1.919-0.281-2.888-0.316c-0.245-0.008-0.449,0.185-0.456,0.43
		c0,0.004,0,0.008,0,0.013L16.446,23.139z"/>
	<path fill="#FFFFFF" d="M14.953,27.247l0.3,0.027c0.241,0.023,0.455-0.154,0.479-0.396c0.001-0.014,0.002-0.028,0.002-0.043v-3.699
		c-0.003-0.247-0.204-0.445-0.451-0.443c-0.003,0-0.006,0-0.01,0c-0.969,0.035-1.934,0.142-2.888,0.317
		c-0.242,0.046-0.401,0.279-0.356,0.522c0.006,0.026,0.013,0.053,0.022,0.077c0.488,1.469,1.455,2.731,2.745,3.587
		C14.845,27.223,14.898,27.241,14.953,27.247z"/>
	<path fill="#FFFFFF" d="M12.045,22.358c1.072-0.215,2.161-0.34,3.254-0.374c0.24-0.007,0.432-0.202,0.431-0.442v-1.59
		c0.001-0.245-0.197-0.443-0.442-0.443c-0.004,0-0.009,0-0.013,0h-3.73c-0.242-0.002-0.44,0.191-0.443,0.435
		c0,0.021,0.001,0.044,0.004,0.065c0.097,0.686,0.232,1.364,0.407,2.033C11.576,22.274,11.812,22.413,12.045,22.358z"/>
</g>
</svg>
