<?xml version="1.0" encoding="utf-8"?>
<!-- Generator: Adobe Illustrator 16.0.0, SVG Export Plug-In . SVG Version: 6.00 Build 0)  -->
<!DOCTYPE svg PUBLIC "-//W3C//DTD SVG 1.1//EN" "http://www.w3.org/Graphics/SVG/1.1/DTD/svg11.dtd">
<svg version="1.1" id="Layer_1" xmlns="http://www.w3.org/2000/svg" xmlns:xlink="http://www.w3.org/1999/xlink" x="0px" y="0px"
	 width="21.859px" height="20.766px" viewBox="0 0 21.859 20.766" enable-background="new 0 0 21.859 20.766" xml:space="preserve">
<g transform="translate(-2 -2)">
	<path fill="#FFFFFF" d="M21.673,4.186V3.093C21.669,2.491,21.182,2.004,20.58,2H5.279C4.677,2.004,4.19,2.491,4.186,3.093v2.186
		H3.639C2.733,5.279,2,6.013,2,6.918c0,0.906,0.733,1.64,1.64,1.64h0.546v2.187H3.639c-0.906,0-1.64,0.733-1.64,1.639
		c0,0.906,0.733,1.64,1.64,1.64h0.546v2.187H3.639c-0.906,0-1.64,0.733-1.64,1.64c0,0.905,0.733,1.639,1.64,1.639h0.546v2.187
		c0.004,0.602,0.49,1.089,1.093,1.093h15.3c0.603-0.004,1.089-0.491,1.093-1.093V20.58h2.187V4.186H21.673z M5.825,18.395H3.639
		c-0.302,0-0.547-0.244-0.547-0.546s0.245-0.547,0.547-0.547h2.186c0.302,0,0.547,0.245,0.547,0.547S6.127,18.395,5.825,18.395
		L5.825,18.395z M5.825,12.93H3.639c-0.302,0-0.547-0.244-0.547-0.547c0-0.302,0.245-0.546,0.547-0.546h2.186
		c0.302,0,0.547,0.244,0.547,0.546C6.372,12.686,6.127,12.93,5.825,12.93L5.825,12.93z M5.825,7.465H3.639
		c-0.302,0-0.547-0.245-0.547-0.547s0.245-0.546,0.547-0.546h2.186c0.302,0,0.547,0.244,0.547,0.546S6.127,7.465,5.825,7.465z
		 M17.3,9.651H8.558V5.279H17.3V9.651z M22.765,19.488h-1.093v-2.732h1.094L22.765,19.488z M22.765,15.663h-1.093V12.93h1.094
		L22.765,15.663z M22.765,11.838h-1.093V9.1h1.094L22.765,11.838z M22.765,8.013h-1.093V5.279h1.094L22.765,8.013z"/>
</g>
</svg>
