<svg xmlns="http://www.w3.org/2000/svg" width="24.964" height="25.036" viewBox="0 0 24.964 25.036"><defs><style>.a{fill:#6dccf9;}</style></defs><g transform="translate(-1.2 -1.08)"><path class="a" d="M1.868,20.358l1.047.184a5.43,5.43,0,0,0,.537,1.305l-.606.87a.806.806,0,0,0,.09,1.024l.629.629a.806.806,0,0,0,1.024.09l.873-.612a5.44,5.44,0,0,0,1.318.553l.184,1.047a.806.806,0,0,0,.793.668h.89a.806.806,0,0,0,.793-.668L9.624,24.4a5.437,5.437,0,0,0,1.305-.542l.873.612a.806.806,0,0,0,1.024-.09l.629-.629a.806.806,0,0,0,.09-1.024l-.612-.873a5.422,5.422,0,0,0,.542-1.305l1.047-.184a.806.806,0,0,0,.668-.793v-.9a.806.806,0,0,0-.668-.793l-1.044-.189a5.42,5.42,0,0,0-.542-1.305l.612-.873a.806.806,0,0,0-.09-1.024l-.627-.637a.806.806,0,0,0-1.024-.09l-.883.617a5.438,5.438,0,0,0-1.305-.542l-.184-1.047a.806.806,0,0,0-.793-.668H7.753a.806.806,0,0,0-.793.668l-.182,1.047a5.437,5.437,0,0,0-1.305.542L4.6,13.769a.806.806,0,0,0-1.024.09l-.637.627a.806.806,0,0,0-.09,1.024l.6.883a5.422,5.422,0,0,0-.535,1.3l-1.049.184a.806.806,0,0,0-.668.793v.888A.806.806,0,0,0,1.868,20.358ZM8.2,16.548a2.559,2.559,0,1,1-2.559,2.559A2.559,2.559,0,0,1,8.2,16.548ZM20.89,22.505V19.128H19.828a.317.317,0,0,1-.256-.494l2.083-3.094a.317.317,0,0,1,.256-.141h0a.317.317,0,0,1,.256.141l2.088,3.094a.317.317,0,0,1-.256.494H22.927v4.4A1.024,1.024,0,0,1,21.9,24.547H15.755a.458.458,0,0,1-.458-.458V22.963a.458.458,0,0,1,.458-.458ZM25.5,9.314a.806.806,0,0,0,.668-.793V7.633A.806.806,0,0,0,25.5,6.84L24.45,6.656a5.43,5.43,0,0,0-.527-1.308l.612-.873a.806.806,0,0,0-.09-1.024l-.635-.637a.806.806,0,0,0-1.024-.09l-.88.612a5.432,5.432,0,0,0-1.31-.542l-.179-1.047a.806.806,0,0,0-.793-.668h-.89a.806.806,0,0,0-.793.668l-.184,1.047a5.432,5.432,0,0,0-1.305.542l-.873-.612a.806.806,0,0,0-1.024.09l-.637.629a.806.806,0,0,0-.09,1.024l.612.873A5.425,5.425,0,0,0,13.9,6.645L12.85,6.83a.806.806,0,0,0-.668.793v.888a.806.806,0,0,0,.668.793l1.049.184a5.417,5.417,0,0,0,.542,1.305l-.612.873a.806.806,0,0,0,.09,1.024l.624.653a.806.806,0,0,0,1.024.09l.873-.612a5.427,5.427,0,0,0,1.305.542l.184,1.047a.806.806,0,0,0,.793.668h.89a.806.806,0,0,0,.793-.668l.189-1.052a5.427,5.427,0,0,0,1.305-.542l.873.612a.806.806,0,0,0,1.024-.09l.637-.627a.806.806,0,0,0,.09-1.024l-.6-.883a5.417,5.417,0,0,0,.535-1.3Zm-6.318,1.333a2.559,2.559,0,1,1,2.559-2.559A2.559,2.559,0,0,1,19.178,10.648ZM6.484,4.691V8.068H7.546a.317.317,0,0,1,.256.494L5.727,11.656a.317.317,0,0,1-.256.141h0a.317.317,0,0,1-.256-.141l-2.1-3.094a.317.317,0,0,1,.256-.494H4.439v-4.4A1.024,1.024,0,0,1,5.463,2.649H11.62a.458.458,0,0,1,.458.458V4.233a.458.458,0,0,1-.458.458Z"/></g></svg>