<?xml version="1.0" encoding="utf-8"?>
<!-- Generator: Adobe Illustrator 16.0.0, SVG Export Plug-In . SVG Version: 6.00 Build 0)  -->
<!DOCTYPE svg PUBLIC "-//W3C//DTD SVG 1.1//EN" "http://www.w3.org/Graphics/SVG/1.1/DTD/svg11.dtd">
<svg version="1.1" id="Layer_1" xmlns="http://www.w3.org/2000/svg" xmlns:xlink="http://www.w3.org/1999/xlink" x="0px" y="0px"
	 width="24.964px" height="25.036px" viewBox="0 0 24.964 25.036" enable-background="new 0 0 24.964 25.036" xml:space="preserve">
<g transform="translate(-1.2 -1.08)">
	<path fill="#FFFFFF" d="M1.868,20.358l1.047,0.184c0.122,0.457,0.302,0.896,0.537,1.306l-0.606,0.87
		c-0.22,0.318-0.182,0.748,0.09,1.023l0.629,0.629c0.275,0.272,0.705,0.311,1.024,0.09l0.873-0.611
		c0.413,0.241,0.856,0.428,1.318,0.553l0.184,1.047c0.067,0.387,0.401,0.668,0.793,0.668h0.89c0.392,0,0.726-0.281,0.793-0.668
		L9.624,24.4c0.457-0.123,0.896-0.306,1.305-0.542l0.873,0.612c0.319,0.22,0.749,0.183,1.024-0.091l0.629-0.629
		c0.272-0.275,0.31-0.705,0.09-1.023l-0.612-0.873c0.237-0.41,0.419-0.848,0.542-1.305l1.047-0.184
		c0.386-0.068,0.668-0.402,0.668-0.793v-0.9c0-0.392-0.282-0.727-0.668-0.793l-1.044-0.189c-0.123-0.457-0.305-0.896-0.542-1.305
		l0.612-0.873c0.22-0.318,0.182-0.748-0.09-1.023l-0.627-0.638c-0.275-0.272-0.705-0.31-1.024-0.09l-0.883,0.616
		c-0.41-0.236-0.848-0.418-1.305-0.542l-0.184-1.047c-0.067-0.386-0.401-0.667-0.793-0.668H7.753c-0.392,0-0.726,0.282-0.793,0.668
		l-0.182,1.047c-0.457,0.123-0.896,0.305-1.305,0.542L4.6,13.769c-0.318-0.22-0.749-0.182-1.024,0.09l-0.637,0.628
		c-0.272,0.275-0.31,0.705-0.09,1.023l0.6,0.883c-0.234,0.408-0.414,0.846-0.535,1.3l-1.049,0.185
		c-0.386,0.066-0.667,0.4-0.668,0.793v0.888C1.194,19.954,1.478,20.291,1.868,20.358z M8.2,16.547c1.413,0,2.559,1.146,2.559,2.56
		s-1.146,2.56-2.559,2.56s-2.559-1.146-2.559-2.56S6.787,16.547,8.2,16.547L8.2,16.547z M20.89,22.504v-3.377h-1.062
		c-0.176-0.004-0.314-0.148-0.311-0.323c0.002-0.061,0.02-0.12,0.055-0.171l2.082-3.094c0.058-0.086,0.153-0.139,0.256-0.141l0,0
		c0.104,0.002,0.199,0.055,0.256,0.141l2.089,3.094c0.098,0.146,0.06,0.343-0.086,0.441c-0.05,0.033-0.109,0.053-0.171,0.053h-1.071
		v4.4c-0.003,0.564-0.462,1.021-1.026,1.02h-6.146c-0.253,0-0.458-0.205-0.458-0.459l0,0v-1.125c0-0.254,0.205-0.459,0.458-0.459
		l0,0H20.89z M25.5,9.314c0.385-0.067,0.667-0.401,0.668-0.793V7.633C26.167,7.242,25.885,6.907,25.5,6.84L24.45,6.656
		c-0.117-0.457-0.295-0.897-0.526-1.308l0.612-0.873c0.219-0.319,0.182-0.749-0.09-1.024L23.81,2.814
		c-0.275-0.272-0.705-0.31-1.024-0.09l-0.879,0.612c-0.412-0.237-0.852-0.419-1.311-0.542l-0.18-1.047
		c-0.066-0.386-0.4-0.667-0.793-0.668h-0.889c-0.393,0-0.727,0.282-0.793,0.668l-0.185,1.047C17.3,2.917,16.862,3.1,16.451,3.336
		l-0.873-0.612c-0.318-0.22-0.748-0.182-1.023,0.09l-0.637,0.629c-0.272,0.276-0.31,0.706-0.09,1.024L14.44,5.34
		c-0.236,0.41-0.417,0.849-0.54,1.305L12.85,6.83c-0.386,0.067-0.667,0.401-0.668,0.793v0.888c0,0.391,0.282,0.726,0.668,0.793
		l1.049,0.184c0.123,0.457,0.304,0.896,0.542,1.305l-0.613,0.873c-0.22,0.319-0.182,0.749,0.09,1.024l0.624,0.653
		c0.275,0.272,0.705,0.31,1.023,0.09l0.873-0.612c0.41,0.236,0.849,0.419,1.305,0.542l0.185,1.047
		c0.067,0.385,0.401,0.667,0.793,0.668h0.89c0.393-0.001,0.727-0.283,0.793-0.668l0.189-1.053c0.457-0.123,0.896-0.305,1.305-0.542
		l0.873,0.612c0.318,0.22,0.749,0.182,1.024-0.09l0.637-0.627c0.272-0.275,0.31-0.705,0.091-1.024l-0.601-0.883
		c0.233-0.408,0.413-0.845,0.534-1.3L25.5,9.314z M19.182,10.647c-1.413,0-2.559-1.146-2.559-2.559c0-1.413,1.146-2.559,2.559-2.559
		c1.414,0,2.559,1.146,2.559,2.559C21.742,9.501,20.596,10.647,19.182,10.647c0,0.001-0.002,0.001-0.004,0.001L19.182,10.647z
		 M6.484,4.691v3.377h1.062c0.175,0.004,0.313,0.149,0.31,0.324c-0.001,0.061-0.02,0.12-0.054,0.17l-2.075,3.094
		c-0.057,0.086-0.153,0.138-0.256,0.141l0,0c-0.103-0.002-0.199-0.055-0.256-0.141l-2.1-3.094c-0.098-0.145-0.06-0.342,0.086-0.44
		c0.05-0.034,0.109-0.053,0.17-0.054h1.068v-4.4c0.003-0.563,0.46-1.019,1.024-1.019h6.157c0.253,0,0.458,0.205,0.458,0.458l0,0
		v1.126c0,0.253-0.205,0.458-0.458,0.458l0,0H6.484z"/>
</g>
</svg>
