<?xml version="1.0" encoding="utf-8"?>
<!-- Generator: Adobe Illustrator 16.0.0, SVG Export Plug-In . SVG Version: 6.00 Build 0)  -->
<!DOCTYPE svg PUBLIC "-//W3C//DTD SVG 1.1//EN" "http://www.w3.org/Graphics/SVG/1.1/DTD/svg11.dtd">
<svg version="1.1" id="Layer_1" xmlns="http://www.w3.org/2000/svg" xmlns:xlink="http://www.w3.org/1999/xlink" x="0px" y="0px"
	 width="17.246px" height="23.518px" viewBox="0 0 17.246 23.518" enable-background="new 0 0 17.246 23.518" xml:space="preserve">
<path fill="#FFFFFF" d="M0.392,0C0.175,0,0,0.176,0,0.392l0,0v1.176c0,0.005,0,0.01,0,0.015s0,0.009,0,0.015v21.529
	c0,0.217,0.175,0.393,0.392,0.393c0.216,0,0.392-0.176,0.392-0.393v-9.26c1.585,0.4,3.212,0.614,4.847,0.64
	c1.365,0.052,2.722-0.223,3.959-0.8c3-1.592,7.077,0,7.118,0.019c0.202,0.079,0.431-0.021,0.51-0.222
	c0.018-0.046,0.026-0.094,0.027-0.143V1.597c0.001-0.16-0.097-0.305-0.245-0.364c-0.18-0.073-4.452-1.745-7.775,0.018
	C6.59,2.651,1.966,1.6,0.785,1.297V0.397c0-0.217-0.176-0.393-0.392-0.393l0,0L0.392,0z"/>
</svg>
