<svg xmlns="http://www.w3.org/2000/svg" width="22.4" height="22.337" viewBox="0 0 22.4 22.337"><defs><style>.a{fill:#6dccf9;}</style></defs><g transform="translate(-0.5 -0.6)"><g transform="translate(0.5 0.6)"><path class="a" d="M47.213,6.91a2.37,2.37,0,0,1-2.177,1.23A2.336,2.336,0,1,1,47.213,4.7a.455.455,0,0,0,.41.252h.915a.431.431,0,0,0,.442-.442V1.8a1.2,1.2,0,0,0-1.2-1.2H39.8a1.2,1.2,0,0,0-1.2,1.2V9.749a1.2,1.2,0,0,0,1.2,1.2h7.951a1.2,1.2,0,0,0,1.2-1.2V7.1a.431.431,0,0,0-.442-.442h-.915A.445.445,0,0,0,47.213,6.91Z" transform="translate(-26.58 -0.6)"/><path class="a" d="M6.81,2.367A2.37,2.37,0,0,1,8.04,4.544,2.336,2.336,0,1,1,4.6,2.367a.438.438,0,0,0,.221-.379V1.042A.431.431,0,0,0,4.381.6H1.7A1.2,1.2,0,0,0,.5,1.8V9.749a1.2,1.2,0,0,0,1.2,1.2H9.649a1.2,1.2,0,0,0,1.2-1.2V1.8A1.2,1.2,0,0,0,9.649.6H7a.431.431,0,0,0-.442.442v.946A.41.41,0,0,0,6.81,2.367Z" transform="translate(-0.5 -0.6)"/><path class="a" d="M42.67,47.113a2.37,2.37,0,0,1-1.23-2.177,2.336,2.336,0,1,1,3.439,2.177.455.455,0,0,0-.252.41v.915a.431.431,0,0,0,.442.442h2.65a1.2,1.2,0,0,0,1.2-1.2V39.7a1.2,1.2,0,0,0-1.2-1.2H39.8a1.2,1.2,0,0,0-1.2,1.2v7.951a1.2,1.2,0,0,0,1.2,1.2h2.65a.431.431,0,0,0,.442-.442v-.915A.343.343,0,0,0,42.67,47.113Z" transform="translate(-26.58 -26.543)"/><path class="a" d="M2.267,42.57a2.37,2.37,0,0,1,2.177-1.23,2.336,2.336,0,1,1-2.177,3.439.455.455,0,0,0-.41-.252H.942a.431.431,0,0,0-.442.442v2.65a1.2,1.2,0,0,0,1.2,1.2H9.649a1.2,1.2,0,0,0,1.2-1.2V39.7a1.2,1.2,0,0,0-1.2-1.2H1.7A1.2,1.2,0,0,0,.5,39.7v2.65a.431.431,0,0,0,.442.442h.915A.382.382,0,0,0,2.267,42.57Z" transform="translate(-0.5 -26.543)"/></g></g></svg>