<?xml version="1.0" encoding="utf-8"?>
<!-- Generator: Adobe Illustrator 16.0.0, SVG Export Plug-In . SVG Version: 6.00 Build 0)  -->
<!DOCTYPE svg PUBLIC "-//W3C//DTD SVG 1.1//EN" "http://www.w3.org/Graphics/SVG/1.1/DTD/svg11.dtd">
<svg version="1.1" id="Layer_1" xmlns="http://www.w3.org/2000/svg" xmlns:xlink="http://www.w3.org/1999/xlink" x="0px" y="0px"
	 width="22.4px" height="22.336px" viewBox="0 0 22.4 22.336" enable-background="new 0 0 22.4 22.336" xml:space="preserve">
<g transform="translate(-0.5 -0.6)">
	<g transform="translate(0.5 0.6)">
		<path fill="#FFFFFF" d="M20.633,6.31c-0.433,0.791-1.276,1.267-2.177,1.23c-1.288-0.066-2.279-1.165-2.213-2.453
			c0.066-1.288,1.165-2.279,2.453-2.213c0.815,0.042,1.55,0.507,1.937,1.226c0.078,0.155,0.237,0.253,0.41,0.252h0.915
			c0.238,0.006,0.437-0.182,0.442-0.42c0-0.007,0-0.015,0-0.022V1.2c0-0.663-0.537-1.2-1.2-1.2l0,0H13.22
			c-0.663,0-1.2,0.537-1.2,1.2l0,0v7.949c0,0.663,0.537,1.2,1.2,1.2l0,0h7.95c0.663,0,1.2-0.538,1.2-1.2l0,0V6.5
			c0.006-0.238-0.182-0.436-0.42-0.442c-0.007,0-0.015,0-0.021,0h-0.915C20.85,6.065,20.704,6.162,20.633,6.31z"/>
		<path fill="#FFFFFF" d="M6.31,1.767C7.1,2.2,7.577,3.043,7.54,3.944C7.473,5.232,6.376,6.223,5.087,6.157
			C3.799,6.091,2.808,4.993,2.874,3.704C2.916,2.889,3.381,2.154,4.1,1.767c0.136-0.078,0.22-0.222,0.221-0.379V0.442
			C4.327,0.204,4.139,0.006,3.901,0C3.894,0,3.887,0,3.881,0H1.2C0.537,0,0,0.537,0,1.2v7.949c0,0.663,0.537,1.2,1.2,1.2h7.949
			c0.662,0,1.2-0.538,1.2-1.2V1.2c0-0.663-0.538-1.2-1.2-1.2H6.5C6.262-0.006,6.064,0.182,6.058,0.42
			c-0.001,0.007-0.001,0.015,0,0.022v0.946C6.057,1.554,6.157,1.703,6.31,1.767z"/>
		<path fill="#FFFFFF" d="M16.09,20.57c-0.79-0.433-1.267-1.276-1.229-2.177c0.065-1.289,1.164-2.279,2.452-2.213
			c1.288,0.065,2.279,1.163,2.214,2.451c-0.042,0.816-0.507,1.552-1.228,1.938c-0.155,0.077-0.253,0.237-0.252,0.41v0.915
			c-0.006,0.238,0.182,0.436,0.42,0.441c0.008,0.001,0.015,0.001,0.022,0h2.65c0.662,0,1.199-0.537,1.199-1.199l0,0v-7.98
			c0-0.662-0.537-1.199-1.199-1.199l0,0H13.22c-0.663,0-1.2,0.537-1.2,1.199l0,0v7.951c0,0.662,0.537,1.2,1.2,1.2l0,0h2.649
			c0.238,0.007,0.436-0.182,0.442-0.42c0-0.007,0-0.015,0-0.022v-0.914C16.341,20.788,16.247,20.626,16.09,20.57z"/>
		<path fill="#FFFFFF" d="M1.767,16.027c0.433-0.79,1.276-1.267,2.177-1.229c1.288,0.065,2.279,1.164,2.214,2.452
			c-0.066,1.288-1.164,2.279-2.453,2.214c-0.815-0.043-1.551-0.508-1.938-1.228c-0.078-0.155-0.236-0.253-0.41-0.252H0.442
			C0.204,17.978,0.007,18.167,0,18.404c0,0.007,0,0.015,0,0.022v2.65c0,0.662,0.537,1.199,1.2,1.199l0,0h7.949
			c0.662,0,1.2-0.537,1.2-1.199l0,0v-7.92c0-0.662-0.538-1.199-1.2-1.199l0,0H1.2c-0.663,0-1.2,0.537-1.2,1.199l0,0v2.65
			c-0.006,0.238,0.182,0.436,0.42,0.441c0.008,0,0.015,0,0.022,0h0.915C1.528,16.277,1.697,16.186,1.767,16.027z"/>
	</g>
</g>
</svg>
