<svg xmlns="http://www.w3.org/2000/svg" width="21.859" height="20.766" viewBox="0 0 21.859 20.766"><defs><style>.a{fill:#6dccf9;}</style></defs><g transform="translate(-2 -2)"><path class="a" d="M21.673,4.186V3.093A1.1,1.1,0,0,0,20.58,2H5.279A1.1,1.1,0,0,0,4.186,3.093V5.279H3.639a1.639,1.639,0,1,0,0,3.279h.546v2.186H3.639a1.639,1.639,0,1,0,0,3.279h.546v2.186H3.639a1.639,1.639,0,1,0,0,3.279h.546v2.186a1.1,1.1,0,0,0,1.093,1.093h15.3a1.1,1.1,0,0,0,1.093-1.093V20.58h2.186V4.186ZM5.825,18.395H3.639a.546.546,0,1,1,0-1.093H5.825a.546.546,0,1,1,0,1.093Zm0-5.465H3.639a.546.546,0,0,1,0-1.093H5.825a.546.546,0,1,1,0,1.093Zm0-5.465H3.639a.546.546,0,1,1,0-1.093H5.825a.546.546,0,1,1,0,1.093ZM17.3,9.651H8.558V5.279H17.3Zm5.465,9.837H21.673V16.755h1.093Zm0-3.825H21.673V12.93h1.093Zm0-3.825H21.673V9.1h1.093Zm0-3.825H21.673V5.279h1.093Z" transform="translate(0 0)"/></g></svg>