<?xml version="1.0" encoding="utf-8"?>
<!-- Generator: Adobe Illustrator 16.0.0, SVG Export Plug-In . SVG Version: 6.00 Build 0)  -->
<!DOCTYPE svg PUBLIC "-//W3C//DTD SVG 1.1//EN" "http://www.w3.org/Graphics/SVG/1.1/DTD/svg11.dtd">
<svg version="1.1" id="Layer_1" xmlns="http://www.w3.org/2000/svg" xmlns:xlink="http://www.w3.org/1999/xlink" x="0px" y="0px"
	 width="16.807px" height="20.168px" viewBox="0 0 16.807 20.168" enable-background="new 0 0 16.807 20.168" xml:space="preserve">
<g transform="translate(-888 -219)">
	<path fill="#FFFFFF" d="M901.446,224.041c0.002,2.785-2.256,5.044-5.041,5.045s-5.044-2.256-5.045-5.041s2.256-5.044,5.041-5.045
		c0.001,0,0.001,0,0.001,0C899.187,219,901.444,221.257,901.446,224.041z"/>
	<path fill="#FFFFFF" d="M904.807,235.689c0,1.917-1.261,3.479-2.8,3.479H890.8c-1.537,0-2.8-1.562-2.8-3.479
		c0-3.454,0.854-7.445,4.293-7.445c2.282,2.24,5.938,2.24,8.221,0C903.953,228.244,904.807,232.236,904.807,235.689L904.807,235.689
		z"/>
</g>
</svg>
