<?xml version="1.0" encoding="utf-8"?>
<!-- Generator: Adobe Illustrator 16.0.0, SVG Export Plug-In . SVG Version: 6.00 Build 0)  -->
<!DOCTYPE svg PUBLIC "-//W3C//DTD SVG 1.1//EN" "http://www.w3.org/Graphics/SVG/1.1/DTD/svg11.dtd">
<svg version="1.1" id="Layer_1" xmlns="http://www.w3.org/2000/svg" xmlns:xlink="http://www.w3.org/1999/xlink" x="0px" y="0px"
	 width="23.703px" height="23.703px" viewBox="0 0 23.703 23.703" enable-background="new 0 0 23.703 23.703" xml:space="preserve">
<path fill="#FFFFFF" d="M11.851,0C5.306-0.001-0.001,5.304-0.002,11.849c-0.001,6.545,5.304,11.852,11.849,11.854
	c6.545,0,11.852-5.305,11.854-11.85c0,0,0-0.001,0-0.002C23.694,5.309,18.393,0.007,11.851,0z M11.851,15.119
	c0.979-0.009,1.805-0.73,1.945-1.699h2.82c-0.153,2.637-2.414,4.65-5.051,4.497c-2.528-0.146-4.504-2.239-4.505-4.771v-2.591
	c-0.005-2.641,2.131-4.786,4.771-4.791c2.551-0.005,4.657,1.994,4.786,4.542H13.8c-0.15-1.077-1.146-1.827-2.222-1.676
	c-0.972,0.136-1.696,0.968-1.695,1.95v2.594C9.906,14.248,10.777,15.109,11.851,15.119z"/>
</svg>
