<?xml version="1.0" encoding="utf-8"?>
<!-- Generator: Adobe Illustrator 16.0.0, SVG Export Plug-In . SVG Version: 6.00 Build 0)  -->
<!DOCTYPE svg PUBLIC "-//W3C//DTD SVG 1.1//EN" "http://www.w3.org/Graphics/SVG/1.1/DTD/svg11.dtd">
<svg version="1.1" id="Layer_1" xmlns="http://www.w3.org/2000/svg" xmlns:xlink="http://www.w3.org/1999/xlink" x="0px" y="0px"
	 width="16.484px" height="16.484px" viewBox="0 0 16.484 16.484" enable-background="new 0 0 16.484 16.484" xml:space="preserve">
<g transform="translate(-10267.25 -13)">
	<path display="none" d="M10275.492,29.484c-0.591-0.008-1.067-0.484-1.075-1.075V14.075c0-0.594,0.481-1.075,1.075-1.075
		s1.075,0.481,1.075,1.075v14.334C10276.56,29,10276.083,29.476,10275.492,29.484z"/>
	<path fill="#004DFF" d="M10282.659,22.317h-14.334c-0.594,0-1.075-0.48-1.075-1.074c-0.001-0.594,0.48-1.075,1.074-1.076h0.001
		h14.334c0.594,0,1.075,0.48,1.076,1.074c0,0.594-0.481,1.075-1.074,1.076C10282.66,22.317,10282.66,22.317,10282.659,22.317z"/>
</g>
</svg>
