<svg xmlns="http://www.w3.org/2000/svg" width="18.812" height="18.332" viewBox="0 0 18.812 18.332"><defs><style>.a{fill:#004dff;}</style></defs><path class="a" d="M26.785,11.265a.569.569,0,0,1-.565.5h-.076l-1.776-.233A9.166,9.166,0,1,1,17.149,8a.573.573,0,0,1,0,1.146,8.02,8.02,0,1,0,6.225,2.967l-.1,2.215a.573.573,0,0,1-.569.546h-.027a.565.565,0,0,1-.546-.6l.153-3.556a.057.057,0,0,1,0-.027.294.294,0,0,1,0-.057v-.08a.053.053,0,0,1,0-.023.577.577,0,0,1,.034-.069h0a.508.508,0,0,1,.053-.073h0a.554.554,0,0,1,.118-.1h0a.546.546,0,0,1,.08-.046h0l.076-.027h.225l3.357.447a.573.573,0,0,1,.55.6Z" transform="translate(-7.973 -8)"/></svg>