<svg xmlns="http://www.w3.org/2000/svg" width="16.48" height="16.48" viewBox="0 0 16.48 16.48"><defs><style>.a{fill:#fff;}</style></defs><path class="a" d="M15.963,35.6l-3.086-3.086A1.766,1.766,0,0,0,11.629,32H1.766A1.766,1.766,0,0,0,0,33.766V46.715A1.766,1.766,0,0,0,1.766,48.48H14.715a1.766,1.766,0,0,0,1.766-1.766V36.851a1.766,1.766,0,0,0-.517-1.249Zm-5.957-1.837v2.943H5.3V33.766Zm4.488,12.949H1.986a.221.221,0,0,1-.221-.221V33.986a.221.221,0,0,1,.221-.221H3.532v3.826a.883.883,0,0,0,.883.883h6.474a.883.883,0,0,0,.883-.883V33.909l2.878,2.878a.221.221,0,0,1,.065.156v9.551A.221.221,0,0,1,14.494,46.715ZM8.24,39.357a3.237,3.237,0,1,0,3.237,3.237A3.241,3.241,0,0,0,8.24,39.357Zm0,4.709a1.471,1.471,0,1,1,1.471-1.471A1.473,1.473,0,0,1,8.24,44.066Z" transform="translate(0 -32)"/></svg>