<svg xmlns="http://www.w3.org/2000/svg" width="16.144" height="16.148" viewBox="0 0 16.144 16.148"><defs><style>.a{fill:#124dff;}</style></defs><path class="a" d="M10.257,17.34a6.585,6.585,0,1,1,4.659-1.927,6.585,6.585,0,0,1-4.659,1.927Zm0-11.83a5.245,5.245,0,1,0,3.71,1.534,5.245,5.245,0,0,0-3.71-1.534Z" transform="translate(-3.675 -4.169)"/><path class="a" d="M24.108,25.279a.67.67,0,0,1-.474-.2l-4.708-4.708a.671.671,0,1,1,.948-.948l4.707,4.708a.671.671,0,0,1-.474,1.145Z" transform="translate(-8.635 -9.13)"/></svg>