<svg xmlns="http://www.w3.org/2000/svg" width="19.131" height="19.147" viewBox="0 0 19.131 19.147"><defs><style>.a{fill:#124dff;}</style></defs><g transform="translate(-16665.844 605.3)"><path class="a" d="M16376.494-656.944a.481.481,0,0,1,.339.139.483.483,0,0,1,.114.5l-6.584,18.187a.479.479,0,0,1-.389.313.48.48,0,0,1-.457-.2l-4.73-6.819-6.73-4.507a.48.48,0,0,1-.209-.455.481.481,0,0,1,.31-.394l18.171-6.735A.481.481,0,0,1,16376.494-656.944Zm-6.717,17.629,5.914-16.338-16.318,6.048,6.024,4.035a.483.483,0,0,1,.128.125Z" transform="translate(307.999 51.644)"/><path class="a" d="M-2.844,8.084-3.52,7.4,7.528-3.551l.676.682Z" transform="translate(16676.293 -601.279)"/><path class="a" d="M16428.48-534.82a.476.476,0,0,1-.217-.052.48.48,0,0,1-.264-.428v-3.719a.48.48,0,0,1,.48-.48.48.48,0,0,1,.48.48v2.774l.98-.716a.481.481,0,0,1,.672.1.48.48,0,0,1-.105.671l-1.744,1.274A.481.481,0,0,1,16428.48-534.82Z" transform="translate(244.584 -54.517)"/></g></svg>