<svg xmlns="http://www.w3.org/2000/svg" width="66.064" height="86.526" viewBox="0 0 66.064 86.526"><defs><style>.a{fill:#15aed1;}.a,.b,.c,.e,.f,.g{fill-rule:evenodd;}.b{fill:#98dfff;}.c{fill:#47cefc;}.d,.f{fill:#7dd9f9;}.e{fill:#1eb1d8;}.g{fill:#fff;}</style></defs><g transform="translate(-599.498 -119.68)"><path class="a" d="M638.87,140.657h7.2a4.97,4.97,0,0,1,4.958,4.958v6.22a4.97,4.97,0,0,1-4.958,4.958h-7.2a4.97,4.97,0,0,1-4.957-4.958v-6.22a4.97,4.97,0,0,1,4.957-4.958Zm7.2,2.061h-7.2a2.911,2.911,0,0,0-2.9,2.9v6.22a2.909,2.909,0,0,0,2.9,2.9h7.2a2.909,2.909,0,0,0,2.9-2.9v-6.22a2.911,2.911,0,0,0-2.9-2.9Z" transform="translate(14.532 8.858)"/><path class="a" d="M604.456,140.657h7.2a4.972,4.972,0,0,1,4.958,4.958v6.22a4.972,4.972,0,0,1-4.958,4.958h-7.2a4.97,4.97,0,0,1-4.958-4.958v-6.22a4.97,4.97,0,0,1,4.958-4.958Zm7.2,2.061h-7.2a2.911,2.911,0,0,0-2.9,2.9v6.22a2.909,2.909,0,0,0,2.9,2.9h7.2a2.909,2.909,0,0,0,2.9-2.9v-6.22a2.911,2.911,0,0,0-2.9-2.9Z" transform="translate(0 8.858)"/><path class="b" d="M609.035,136.841h43.356c2.9,0,5.706,2.405,5.27,5.269L649.8,193.69c-.437,2.864-2.372,5.269-5.269,5.269H616.9c-2.9,0-4.833-2.405-5.269-5.269l-7.861-51.58C603.329,139.245,606.136,136.841,609.035,136.841Z" transform="translate(1.783 7.246)"/><path class="c" d="M622.7,136.841h21.678c2.9,0,5.706,2.405,5.27,5.269l-7.861,51.58c-.437,2.864-2.372,5.269-5.269,5.269H622.7Z" transform="translate(9.797 7.246)"/><path class="d" d="M1.463,0H60.512a1.462,1.462,0,0,1,1.462,1.462V5a1.462,1.462,0,0,1-1.462,1.462H1.462A1.462,1.462,0,0,1,0,5V1.463A1.463,1.463,0,0,1,1.463,0Z" transform="translate(601.509 141.368)"/><path class="e" d="M622.7,134.929H652.32c.751,0,1.365.936,1.365,2.081v2.3c0,1.142-.614,2.079-1.365,2.079H622.7Z" transform="translate(9.797 6.439)"/><path class="f" d="M631.725,121.779l-7-1.68a4.966,4.966,0,0,0-5.979,3.664l-.526,2.193,2.005.481.526-2.193a2.909,2.909,0,0,1,3.493-2.141l7,1.68a2.909,2.909,0,0,1,2.142,3.493l-.529,2.193,2.007.482.526-2.193a4.972,4.972,0,0,0-3.664-5.979Z" transform="translate(7.905 0.119)"/><path class="e" d="M628.9,121.49l-3.5-.841-.482,2.005,3.5.839a2.909,2.909,0,0,1,2.142,3.493l-.529,2.193,2.007.482.526-2.193a4.972,4.972,0,0,0-3.664-5.979Z" transform="translate(10.733 0.409)"/><path class="f" d="M605.5,119.738l56.218,13.493a2.083,2.083,0,0,1,1.536,2.507l-.538,2.24a2.085,2.085,0,0,1-2.506,1.536L603.986,126.02a2.087,2.087,0,0,1-1.537-2.507l.538-2.239A2.084,2.084,0,0,1,605.5,119.738Z" transform="translate(1.222)"/><path class="e" d="M624.786,124.464l28.8,6.914c.728.175,1.108,1.229.841,2.341l-.538,2.24c-.266,1.111-1.081,1.877-1.812,1.7l-28.8-6.914Z" transform="translate(10.041 2.02)"/><path class="g" d="M628.517,150.246c.3,0,.587.009.879.026v-3.283l6.8,5.554-6.8,5.554V154.14c-.29-.023-.583-.036-.879-.036a11.142,11.142,0,0,0-10.924,8.965l-3.537-1.809a15.009,15.009,0,0,1,14.462-11.014Zm14.154,28.023-3-3a15.006,15.006,0,0,0-2.028-21.926l-3.1,2.532a11.347,11.347,0,0,1,1.849,1.493,11.138,11.138,0,0,1,.545,15.167l-2.121-2.119-.88,8.734,8.734-.88Zm-31.257-6.508,2.357-8.457,7.817,4-3.6,1.58a11.151,11.151,0,0,0,14.574,6.744l-.421,4.176a15.011,15.011,0,0,1-17.7-9.367Z" transform="translate(5.032 11.531)"/><path class="g" d="M623.752,150.246c.3,0,.587.009.879.026v-3.283l6.8,5.554-6.8,5.554V154.14c-.29-.023-.583-.036-.879-.036-.356,0-.706.018-1.053.05v-3.871q.523-.036,1.053-.037Zm14.154,28.023-3-3a15.006,15.006,0,0,0-2.028-21.926l-3.1,2.532a11.347,11.347,0,0,1,1.849,1.493,11.138,11.138,0,0,1,.545,15.167l-2.121-2.119-.88,8.734,8.734-.88ZM622.7,176.333c.347.031.7.048,1.053.048a11.093,11.093,0,0,0,4.043-.757l-.421,4.176a15.049,15.049,0,0,1-3.622.439c-.353,0-.7-.013-1.053-.036Z" transform="translate(9.797 11.531)"/></g></svg>