<svg xmlns="http://www.w3.org/2000/svg" width="25" height="25" viewBox="0 0 25 25"><defs><style>.a{fill:none;}.b{fill:#124dff;}</style></defs><rect class="a" width="25" height="25"/><g transform="translate(2.529 0.496)"><g transform="translate(4.76 6.043)"><g transform="translate(2.678 0.745)"><g transform="translate(0.298 0.278)"><path class="b" d="M41.8,30.5a.356.356,0,0,1,.322.372v6.942a.375.375,0,0,1-.322.372.353.353,0,0,1-.4-.347V30.872A.372.372,0,0,1,41.8,30.5Z" transform="translate(-41.4 -30.5)"/></g><path class="b" d="M40.845,37.666a.64.64,0,0,1-.645-.645V30.029a.646.646,0,0,1,.719-.645.673.673,0,0,1,.6.669V37a.673.673,0,0,1-.6.669Zm.025-7.711c-.05,0-.074.025-.074.05V37a.053.053,0,0,0,.05.05h0c.025,0,.05-.05.05-.074V30.029a.048.048,0,0,0-.025-.074Z" transform="translate(-40.2 -29.38)"/></g><g transform="translate(0.307 0.273)"><path class="b" d="M33.5,27.531a.226.226,0,0,1,.3,0l2.8,2.653a.351.351,0,0,1-.471.521l-2.455-2.331h0L31.223,30.7a.351.351,0,0,1-.471-.521Z" transform="translate(-30.637 -27.475)"/></g><path class="b" d="M35.45,30.274A.713.713,0,0,1,35,30.1l-2.256-2.132L30.491,30.1a.645.645,0,0,1-1.091-.5.581.581,0,0,1,.2-.446l2.8-2.653a.562.562,0,0,1,.719,0l2.8,2.653a.621.621,0,0,1,.2.446.654.654,0,0,1-.174.471A.787.787,0,0,1,35.45,30.274Zm-2.727-3.025h.124l.1.1L35.4,29.679a.046.046,0,0,0,.074,0c.025-.025.025-.025.025-.05a.077.077,0,0,0-.025-.05l-2.752-2.6-2.752,2.6c-.025.025-.025.025-.025.05a.077.077,0,0,0,.025.05.046.046,0,0,0,.074,0l2.554-2.4Z" transform="translate(-29.4 -26.375)"/></g><path class="b" d="M24.53,22.454H12.059A1.857,1.857,0,0,1,10.2,20.595V3.859A1.857,1.857,0,0,1,12.059,2H24.53A1.857,1.857,0,0,1,26.39,3.859V20.57A1.878,1.878,0,0,1,24.53,22.454ZM12.059,3.388a.5.5,0,0,0-.5.5V20.595a.5.5,0,0,0,.5.5H24.53a.5.5,0,0,0,.5-.5V3.859a.5.5,0,0,0-.5-.5H12.059Z" transform="translate(-10.2 -2)"/><g transform="translate(3.545 3.347)"><path class="b" d="M38.83,35.954H26.359A1.857,1.857,0,0,1,24.5,34.095a.694.694,0,1,1,1.388,0,.5.5,0,0,0,.5.5H38.855a.5.5,0,0,0,.5-.5V17.384a.5.5,0,0,0-.5-.5.693.693,0,0,1-.694-.694.678.678,0,0,1,.694-.694,1.857,1.857,0,0,1,1.859,1.859V34.07A1.9,1.9,0,0,1,38.83,35.954Z" transform="translate(-24.5 -15.5)"/></g></g></svg>