<svg xmlns="http://www.w3.org/2000/svg" width="28.318" height="16.704" viewBox="0 0 28.318 16.704"><defs><style>.a{fill:#124dff;fill-rule:evenodd;}</style></defs><g transform="translate(-3.533 -21.281)"><g transform="translate(3.533 21.281)"><path class="a" d="M19.234,34.1c-7.69,0-13.741,7.533-13.993,7.848a.851.851,0,0,0,0,1.009c.252.315,6.3,7.848,13.993,7.848s13.741-7.533,13.993-7.848a.851.851,0,0,0,0-1.009C32.975,41.633,26.924,34.1,19.234,34.1Zm0,14.655a6.3,6.3,0,1,1,6.3-6.3A6.322,6.322,0,0,1,19.234,48.755Zm-12.292-6.3a25.306,25.306,0,0,1,6.146-4.98,7.907,7.907,0,0,0,0,9.959A25.306,25.306,0,0,1,6.942,42.452Zm18.437,4.98a7.907,7.907,0,0,0,0-9.959,25.306,25.306,0,0,1,6.146,4.98A25.306,25.306,0,0,1,25.38,47.432Z" transform="translate(-5.075 -34.1)"/><path class="a" d="M42.124,49.1c-.126,0-.284.032-.41.032a1.791,1.791,0,0,1-1.387,2.931,1.865,1.865,0,0,1-1.513-.788A3.617,3.617,0,1,0,42.124,49.1Z" transform="translate(-27.966 -44.372)"/></g></g></svg>